<svg width="383" height="456" viewBox="0 0 383 456" fill="none" xmlns="http://www.w3.org/2000/svg">
<path d="M380.358 156.057L380.346 155.54L380.332 155.024L380.306 154.637L380.268 154.12L380.216 153.602L380.165 153.215L380.087 152.699L380.009 152.182L379.919 151.795L379.816 151.278L379.712 150.762L379.584 150.373L379.454 149.857L379.313 149.34L379.157 148.953L379.002 148.436L378.821 148.049L378.641 147.533L378.447 147.144L378.24 146.628L378.034 146.111L377.814 145.724L377.581 145.207L377.336 144.82L377.091 144.432L376.832 143.915L376.561 143.528L376.29 143.012L375.709 142.236L375.089 141.332L374.443 140.558L373.771 139.653L373.061 138.879L372.311 138.103L371.55 137.328L370.762 136.554L369.935 135.778L369.096 135.132L368.23 134.358L367.339 133.712L366.422 133.066L365.505 132.421L364.549 131.775L363.593 131.129L362.612 130.483L361.617 129.966L360.597 129.32L359.55 128.804L358.478 128.159L357.368 127.641L356.231 127.124L355.056 126.608L353.854 126.091L352.628 125.575L350.083 124.671L347.422 123.767L344.658 122.862L341.791 122.088L338.833 121.442L335.785 120.796L332.672 120.279L329.494 119.892L326.265 119.504L322.985 119.246L319.691 119.117H316.385H313.078L309.771 119.246L306.504 119.504L303.275 119.892L300.098 120.279L296.972 120.796L293.937 121.442L290.979 122.088L288.111 122.862L285.334 123.767L282.687 124.671L280.129 125.575L278.902 126.091L277.7 126.608L276.538 127.124L275.388 127.641L274.291 128.159L273.206 128.804L272.159 129.32L271.152 129.966L270.158 130.483L269.176 131.129L268.208 131.775L267.265 132.421L266.334 133.066L265.43 133.712L264.539 134.358L263.674 135.132L262.834 135.778L262.007 136.554L261.22 137.328L260.445 138.103L259.709 138.879L258.998 139.653L258.326 140.558L257.668 141.332L257.06 142.236L256.48 143.012L256.208 143.528L255.937 143.915L255.679 144.432L255.42 144.82L255.188 145.207L254.955 145.724L254.736 146.111L254.516 146.628L254.323 147.144L254.128 147.533L253.948 148.049L253.767 148.436L253.599 148.953L253.457 149.34L253.315 149.857L253.173 150.373L253.057 150.762L252.94 151.278L252.837 151.795L252.747 152.182L252.669 152.699L252.605 153.215L252.54 153.602L252.501 154.12L252.462 154.637L252.436 155.024L252.411 155.54V156.057" stroke="#aa8455" stroke-width="5" stroke-miterlimit="10" stroke-linecap="round" stroke-linejoin="round"/>
<path d="M223.66 427.425L223.247 427.684L222.82 427.942L222.394 428.071L221.968 428.329L221.529 428.459L221.09 428.717L220.638 428.847L220.186 429.105L219.733 429.234L219.269 429.362L218.804 429.492L218.338 429.621L217.873 429.751L217.395 429.88L216.917 430.008H216.427L215.936 430.138H215.458L214.955 430.267H214.463L213.96 430.397H213.469H212.966H212.448H211.945H211.428H210.925H210.408L209.375 430.267H208.328L207.282 430.008L206.236 429.88L205.177 429.621L204.118 429.492L203.072 429.105L202.013 428.847L200.953 428.459L199.907 428.201L198.861 427.684L197.815 427.296L196.781 426.909L195.735 426.392L194.715 425.876L193.694 425.359L192.674 424.842L191.68 424.326L190.672 423.68L189.665 423.034L188.644 422.388L187.611 421.743L186.578 420.967L185.531 420.192L184.498 419.418L183.439 418.642L181.334 416.963L179.228 415.026L177.123 413.089L175.031 411.022L172.951 408.826L170.897 406.372L168.882 404.047L166.919 401.464L165.007 398.881L163.161 396.169L161.391 393.327L159.686 390.485L158.084 387.643L156.56 384.673L155.14 381.703L153.809 378.732L152.595 375.76L151.497 372.79L150.502 369.819L149.611 366.978L148.849 364.136L148.19 361.295L147.635 358.582L147.196 355.87L147.016 354.579L146.86 353.287L146.731 351.995L146.628 350.704L146.537 349.541L146.486 348.249L146.447 347.087V345.924V344.761L146.486 343.6L146.537 342.437L146.628 341.275L146.731 340.241L146.86 339.079L147.016 337.916L147.196 336.883L147.403 335.72L147.635 334.687L147.893 333.654L148.19 332.491L148.501 331.458L148.849 330.554L149.224 329.521L149.611 328.488L150.051 327.583L150.502 326.679L150.735 326.163L150.981 325.776L151.239 325.259L151.497 324.871L151.756 324.354L152.039 323.967L152.311 323.58L152.595 323.192L152.892 322.804L153.189 322.417L153.499 322.03L153.809 321.642L154.132 321.255L154.468 320.867L154.791 320.479L155.14 320.092L155.475 319.834L155.837 319.446L156.199 319.188L156.56 318.8L156.935 318.542L157.309 318.283L157.684 317.896L158.084 317.638L158.472 317.38L158.872 317.122L159.273 316.863L159.686 316.604" stroke="#aa8455" stroke-width="5" stroke-miterlimit="10" stroke-linecap="round" stroke-linejoin="round"/>
<path d="M159.686 28.5742L159.286 28.8328L158.872 29.0914L158.472 29.3499L158.084 29.6073L157.684 29.9958L157.309 30.2531L156.935 30.5116L156.56 30.7702L156.199 31.1575L155.837 31.416L155.475 31.8033L155.14 32.1905L154.791 32.4491L154.468 32.8363L154.132 33.2248L153.809 33.612L153.499 33.9993L153.189 34.3865L152.892 34.7737L152.595 35.1622L152.311 35.5495L152.039 35.9367L151.756 36.4538L151.497 36.8411L151.239 37.2283L150.981 37.7455L150.735 38.1327L150.502 38.6486L150.051 39.553L149.611 40.4574L149.224 41.4904L148.849 42.5234L148.501 43.5577L148.19 44.5908L147.893 45.6238L147.635 46.6569L147.403 47.6899L147.196 48.8529L147.016 49.8859L146.86 51.0489L146.731 52.2106L146.628 53.3735L146.537 54.4066L146.486 55.5695L146.447 56.7312V57.8942V59.0571L146.486 60.2188L146.537 61.5105L146.628 62.6734L146.731 63.965L146.86 65.2567L147.016 66.5483L147.196 67.8399L147.635 70.5518L148.19 73.2649L148.849 76.1055L149.611 78.9473L150.502 81.9178L151.497 84.7596L152.595 87.73L153.809 90.7018L155.14 93.6722L156.56 96.6427L158.084 99.6132L159.686 102.455L161.391 105.297L163.161 108.139L165.007 110.85L166.919 113.434L168.882 116.017L170.897 118.472L172.951 120.796L175.031 122.992L177.123 125.058L179.228 126.996L181.347 128.933L183.452 130.612L184.498 131.388L185.545 132.291L186.578 132.937L187.611 133.712L188.644 134.358L189.665 135.004L190.672 135.65L191.68 136.296L192.674 136.812L193.694 137.329L194.715 137.846L195.735 138.362L196.781 138.879L197.815 139.266L198.861 139.783L199.907 140.17L200.953 140.558L202.013 140.816L203.072 141.204L204.118 141.462L205.177 141.721L206.236 141.849L207.282 142.108L208.328 142.237L209.375 142.366H210.408H210.925H211.428H211.945H212.448H212.966H213.469H213.96H214.463L214.955 142.237H215.458L215.949 142.108L216.427 141.978H216.917L217.395 141.849L217.873 141.721L218.338 141.591L218.804 141.462L219.269 141.332L219.733 141.204L220.186 141.075L220.638 140.816L221.09 140.686L221.529 140.558L221.968 140.299L222.394 140.041L222.82 139.912L223.247 139.653L223.66 139.395" stroke="#aa8455" stroke-width="5" stroke-miterlimit="10" stroke-linecap="round" stroke-linejoin="round"/>
<path d="M3 300.072V299.554L3.01261 299.039L3.03847 298.651L3.07757 298.134L3.12929 297.617L3.19362 297.101L3.25795 296.714L3.33552 296.197L3.42633 295.68L3.52913 295.292L3.64581 294.776L3.76185 294.388L3.89114 293.872L4.03304 293.355L4.18819 292.968L4.35595 292.451L4.5237 291.935L4.70471 291.547L4.89832 291.03L5.10518 290.643L5.31205 290.126L5.54413 289.739L5.76361 289.221L6.00957 288.834L6.2549 288.318L6.52609 287.93L6.78403 287.543L7.06847 287.027L7.64995 286.251L8.25666 285.347L8.90246 284.572L9.58737 283.668L10.2975 282.893L11.0335 282.118L11.796 281.343L12.5963 280.569L13.4105 279.793L14.2625 279.147L15.1278 278.373L16.0196 277.727L16.9234 277.081L17.8536 276.305L18.7965 275.66L19.7652 275.144L20.7339 274.498L21.7285 273.852L22.7489 273.335L23.7952 272.819L24.8667 272.173L25.9779 271.656L27.1144 271.139L28.29 270.623L29.4908 270.106L30.7181 269.59L33.2622 268.686L35.923 267.781L38.6872 266.877L41.5549 266.102L44.5121 265.456L47.5608 264.811L50.6732 264.294L53.8637 263.906L57.0928 263.519L60.3603 263.26L63.6543 263.132H66.9735H70.2801L73.5735 263.26L76.8417 263.519L80.0707 263.906L83.2606 264.294L86.3736 264.811L89.4217 265.456L92.3795 266.102L95.2472 266.877L98.0114 267.781L100.672 268.686L103.216 269.59L104.444 270.106L105.644 270.623L106.82 271.139L107.957 271.656L109.067 272.173L110.139 272.819L111.186 273.335L112.206 273.852L113.201 274.498L114.169 275.144L115.138 275.66L116.081 276.305L117.011 277.081L117.928 277.727L118.806 278.373L119.685 279.147L120.524 279.793L121.337 280.569L122.138 281.343L122.901 282.118L123.637 282.893L124.347 283.668L125.032 284.572L125.678 285.347L126.298 286.251L126.866 287.027L127.15 287.543L127.422 287.93L127.68 288.318L127.925 288.834L128.17 289.221L128.403 289.739L128.622 290.126L128.829 290.643L129.036 291.03L129.23 291.547L129.41 291.935L129.578 292.451L129.746 292.968L129.901 293.355L130.043 293.872L130.173 294.388L130.289 294.776L130.405 295.292L130.508 295.68L130.599 296.197L130.676 296.714L130.741 297.101L130.805 297.617L130.857 298.134L130.896 298.651L130.922 299.039L130.934 299.554V300.072" stroke="#aa8455" stroke-width="5" stroke-miterlimit="10" stroke-linecap="round" stroke-linejoin="round"/>
<path d="M135.675 325H135.959H136.243H136.812H137.38L137.948 324.872H138.607L139.278 324.742L139.924 324.613L140.583 324.484L141.319 324.354L142.055 324.226L142.792 323.967L143.528 323.839L144.975 323.321L146.408 322.804L148.126 322.288L149.831 321.513L151.523 320.867L153.189 320.092L154.843 319.188L156.47 318.413L158.098 317.509L159.686 316.605L162.037 315.184L164.336 313.763L166.609 312.214L168.844 310.664L172.9 307.693L176.852 304.593L179.151 302.655L181.411 300.718L183.633 298.652L185.816 296.715L190.091 292.451L194.237 288.189L198.525 283.41L202.659 278.502L206.649 273.465L210.498 268.428L214.206 263.132L217.77 257.836L221.18 252.411L224.461 246.987L227.509 241.562L230.415 236.009L233.334 230.066L236.098 223.995L238.591 218.183L240.916 212.242L243.06 206.301L245.023 200.23L246.702 194.418L248.188 188.606L249.48 182.794L250.048 179.823L250.564 176.851L251.326 171.685L251.649 169.102L251.908 166.519L252.114 163.935L252.269 161.223L252.373 158.64L252.412 156.057L252.386 153.991L252.321 151.923L252.217 149.986L252.076 148.049L251.908 146.37L251.701 144.691L251.456 143.012L251.171 141.462L250.861 139.912L250.525 138.491L250.125 136.941L249.905 136.295L249.673 135.52L249.48 135.004L249.273 134.358L249.04 133.841L248.808 133.195L248.562 132.679L248.291 132.162L248.007 131.516L247.71 130.999" stroke="#aa8455" stroke-width="5" stroke-miterlimit="10" stroke-linecap="round" stroke-linejoin="round"/>
<path d="M223.66 139.395L224.073 139.137L224.474 138.879L224.874 138.62L225.275 138.361L225.662 138.103L226.05 137.846L226.424 137.587L226.799 137.2L227.16 136.941L227.522 136.554L227.871 136.295L228.219 135.908L228.555 135.52L228.891 135.262L229.214 134.874L229.537 134.487L229.847 134.099L230.157 133.712L230.454 133.325L230.751 132.936L231.035 132.549L231.32 132.033L231.591 131.645L231.862 131.258L232.12 130.742L232.366 130.353L232.611 129.837L232.857 129.45L233.309 128.546L233.734 127.513L234.135 126.608L234.51 125.575L234.846 124.541L235.169 123.508L235.452 122.475L235.711 121.442L235.944 120.279L236.15 119.246L236.331 118.083L236.499 117.05L236.628 115.888L236.731 114.725L236.809 113.562L236.861 112.4L236.899 111.237L236.912 110.204L236.899 109.041L236.861 107.75L236.809 106.588L236.731 105.297L236.628 104.134L236.499 102.842L236.331 101.55L236.15 100.259L235.711 97.5469L235.169 94.705L234.51 91.9932L233.734 89.0214L232.857 86.1809L231.862 83.2091L230.751 80.2387L229.537 77.2682L228.219 74.2977L226.799 71.3273L225.275 68.4855L223.66 65.515L221.968 62.6732L220.186 59.96L218.338 57.2481L216.427 54.6649L214.464 52.0817L212.449 49.6271L210.408 47.3024L208.328 45.1064L206.236 42.9117L204.118 40.9743L202.013 39.1655L199.907 37.3567L198.861 36.5823L197.815 35.8078L196.781 35.0321L195.735 34.3863L194.715 33.6118L193.694 32.966L192.674 32.4488L191.68 31.803L190.672 31.2871L189.665 30.6413L188.644 30.1242L187.611 29.607L186.578 29.2198L185.531 28.7039L184.498 28.3154L183.439 27.9282L182.393 27.5409L181.334 27.1537L180.287 26.8951L179.229 26.6366L178.169 26.378L177.123 26.1207L176.077 25.9907L175.031 25.8621L173.985 25.7322H172.951L172.434 25.6035H171.918H171.414H170.897H170.394L169.89 25.7322H169.386H168.882L168.392 25.8621H167.901L167.41 25.9907H166.919L166.442 26.1207L165.964 26.2493L165.486 26.378H165.008L164.543 26.5079L164.078 26.7665L163.626 26.8951L163.161 27.0238L162.709 27.1537L162.27 27.4123L161.83 27.5409L161.391 27.7995L160.952 27.9282L160.526 28.1868L160.112 28.4453L159.687 28.574" stroke="#aa8455" stroke-width="5" stroke-miterlimit="10" stroke-linecap="round" stroke-linejoin="round"/>
<path d="M130.934 300.072V300.459L130.922 300.977L130.896 301.493L130.857 301.881L130.805 302.397L130.753 302.914L130.676 303.43L130.599 303.818L130.508 304.334L130.405 304.852L130.289 305.239L130.173 305.756L130.043 306.143L129.901 306.659L129.746 307.176L129.578 307.563L129.41 308.081L129.23 308.468L129.036 308.985L128.829 309.372L128.622 309.888L128.403 310.277L128.17 310.792L127.925 311.18L127.68 311.697L127.422 312.084L127.15 312.601L126.866 312.988L126.298 313.893L125.678 314.667L125.032 315.572L124.347 316.346L123.637 317.122L122.901 317.896L122.138 318.672L121.337 319.447L120.524 320.221L119.685 320.997L118.806 321.643L117.928 322.417L117.011 323.063L116.081 323.709L115.138 324.354L114.169 325L113.201 325.517L112.206 326.163L111.186 326.679L110.139 327.325L109.067 327.842L107.957 328.359L106.82 328.875L105.644 329.392L104.444 329.908L103.216 330.425L100.672 331.458L98.0114 332.363L95.2472 333.137L92.3795 333.913L89.4217 334.559L86.3736 335.205L83.2606 335.72L80.0707 336.238L76.8417 336.496L73.5735 336.755L70.2801 336.883L66.9735 337.012L63.6543 336.883L60.3603 336.755L57.0928 336.496L53.8637 336.238L50.6732 335.72L47.5608 335.205L44.5254 334.559L41.5549 333.913L38.6872 333.137L35.923 332.363L33.2622 331.458L30.7181 330.425L29.4908 329.908L28.29 329.392L27.1144 328.875L25.9779 328.359L24.8667 327.842L23.7952 327.325L22.7489 326.679L21.7285 326.163L20.7465 325.517L19.7652 325L18.7965 324.354L17.8536 323.709L16.9234 323.063L16.0196 322.417L15.1278 321.643L14.2625 320.997L13.4105 320.221L12.5963 319.447L11.796 318.672L11.0335 317.896L10.2975 317.122L9.58737 316.346L8.90246 315.572L8.25666 314.667L7.64995 313.893L7.06847 312.988L6.78403 312.601L6.52609 312.084L6.2549 311.697L6.00957 311.18L5.77685 310.792L5.54413 310.277L5.31205 309.888L5.10518 309.372L4.89832 308.985L4.70471 308.468L4.5237 308.081L4.35595 307.563L4.18819 307.176L4.03304 306.659L3.89114 306.143L3.76185 305.756L3.64581 305.239L3.52913 304.852L3.42633 304.334L3.33552 303.818L3.25795 303.43L3.19362 302.914L3.12929 302.397L3.07757 301.881L3.03847 301.493L3.01261 300.977L3 300.459V300.072" stroke="#aa8455" stroke-width="5" stroke-miterlimit="10" stroke-linecap="round" stroke-linejoin="round"/>
<path d="M380.358 156.057L380.307 160.706L380.165 165.357L379.945 170.006L379.622 174.656L379.222 179.306L378.731 184.085L378.15 188.734L377.491 193.514L376.678 198.551L375.773 203.588L374.792 208.754L373.707 213.792L371.291 223.738L368.54 233.682L365.415 243.758L361.979 253.702L358.233 263.519L354.191 273.335L349.864 282.894L345.265 292.322L340.396 301.751L335.255 310.922L329.985 319.705L324.483 328.488L318.348 337.529L311.954 346.442L305.587 354.707L298.974 362.844L292.129 370.724L285.025 378.344L277.792 385.706L270.326 392.81L266.49 396.297L262.615 399.655L258.663 403.014L254.659 406.243L247.206 411.926L243.409 414.767L239.56 417.351L235.659 420.064L231.706 422.517L227.702 425.1L223.66 427.425L219.359 429.88L215.006 432.204L210.718 434.4L206.391 436.466L202.025 438.404L197.634 440.212L193.191 442.021L188.708 443.57L184.407 444.992L180.068 446.412L175.689 447.575L171.285 448.737L166.854 449.771L162.385 450.545L157.903 451.32L153.408 451.966L150.593 452.224L147.777 452.483L144.961 452.741L142.133 452.87L139.356 453H136.592H133.815L131.038 452.87L128.403 452.741L125.768 452.612L123.146 452.354L120.524 452.096L117.902 451.837L115.293 451.45L112.697 451.063L110.101 450.545L107.569 450.028L105.05 449.512L102.532 448.867L100.039 448.091L97.5593 447.445L95.0921 446.671L92.6381 445.766L90.21 444.992L87.7945 444.087L85.3923 443.054L83.0286 442.021L80.6774 440.987L78.3401 439.825L76.0407 438.662L73.7545 437.501L71.5074 436.209L69.6343 435.046L67.7612 433.883L65.9272 432.721L64.1065 431.558L61.872 430.008L59.676 428.329L57.5059 426.779L55.3748 425.1L53.2955 423.293L51.2288 421.484L49.227 419.675L47.2505 417.868L45.3131 415.93L43.4148 413.993L41.5675 411.926L39.7594 409.988L37.9897 407.922L36.2718 405.726L34.6055 403.66L32.9651 401.464L31.3897 399.268L29.8395 396.943L28.3411 394.747L26.8949 392.423L25.4866 390.098L24.1181 387.773L22.8006 385.319L21.5348 382.994L20.3075 380.54L19.132 378.086L17.9955 375.632L16.8975 373.177L15.2313 369.045L13.6685 364.911L12.2217 360.778L10.8916 356.516L9.59999 351.995L8.43766 347.475L7.39137 342.954L6.46113 338.433L5.62171 333.654L4.91157 328.875L4.31747 324.096L3.82618 319.318L3.46481 314.538L3.20623 309.63L3.05172 304.851L3 300.072L3.03847 295.423L3.18037 290.772L3.40048 286.123L3.72338 281.472L4.12323 276.694L4.62714 272.044L5.19537 267.264L5.86704 262.615L6.66799 257.449L7.57238 252.411L8.56695 247.374L9.63846 242.336L12.0672 232.262L14.8049 222.316L17.9312 212.242L21.3664 202.296L25.112 192.481L29.1552 182.793L33.4823 173.106L38.0799 163.678L42.9626 154.378L48.0899 145.078L53.3598 136.295L58.8751 127.641L64.9976 118.6L71.404 109.687L77.7713 101.421L84.3719 93.2846L91.2305 85.4049L98.3211 77.6552L105.554 70.2928L113.033 63.1889L116.856 59.8312L120.743 56.3435L124.683 53.1145L128.687 49.8855L136.14 44.0732L139.95 41.3613L143.799 38.6481L147.7 36.0649L151.652 33.4817L155.643 31.0283L159.686 28.5738L164 26.2491L168.353 23.9245L172.641 21.7285L176.968 19.6624L181.321 17.7249L185.712 15.7875L190.155 14.1074L194.637 12.4286L198.951 11.0083L203.291 9.71666L207.67 8.42505L212.074 7.26209L216.504 6.3577L220.96 5.45458L225.442 4.67885L229.95 4.16296L232.753 3.77447L235.569 3.51715L238.397 3.38723L241.213 3.25858L243.99 3.12866L246.767 3L249.544 3.12866H252.321L254.956 3.25858L257.578 3.38723L260.212 3.64581L262.835 3.90438L265.444 4.29162L268.053 4.55019L270.662 5.06608L273.245 5.45458L275.789 6.10039L278.308 6.61628L280.814 7.26209L283.307 7.90789L285.799 8.68362L288.266 9.45809L290.708 10.2326L293.148 11.1369L295.564 12.0413L297.954 12.9457L300.33 13.9787L302.681 15.1417L305.006 16.1747L307.305 17.3364L309.591 18.6281L311.838 19.9197L313.724 20.954L315.584 22.1157L317.418 23.2786L319.239 24.5703L321.474 26.1205L323.682 27.6694L325.839 29.3495L327.971 31.0283L330.063 32.7072L332.117 34.516L334.131 36.3235L336.108 38.2609L338.045 40.1983L339.931 42.1358L341.778 44.0732L343.586 46.1405L345.356 48.2066L347.073 50.2727L348.753 52.4687L350.38 54.6647L351.969 56.8607L353.506 59.0567L355.004 61.3814L356.464 63.5774L357.872 65.902L359.228 68.3553L360.545 70.6813L361.811 73.1346L363.038 75.4592L364.227 77.9138L365.363 80.497L366.448 82.9516L368.127 86.9551L369.677 91.0886L371.124 95.3506L372.467 99.4841L373.746 104.005L374.921 108.525L375.967 113.046L376.884 117.695L377.724 122.475L378.434 127.124L379.041 132.033L379.519 136.811L379.894 141.59L380.152 146.37L380.307 151.149L380.358 156.057Z" stroke="#aa8455" stroke-width="5" stroke-miterlimit="10" stroke-linecap="round" stroke-linejoin="round"/>
<path d="M252.411 156.057L252.424 156.444L252.436 156.961L252.462 157.477L252.501 157.994L252.54 158.381L252.605 158.898L252.669 159.414L252.759 159.803L252.85 160.319L252.94 160.836L253.057 161.223L253.173 161.74L253.315 162.256L253.457 162.643L253.612 163.161L253.767 163.548L253.948 164.065L254.128 164.581L254.323 164.969L254.516 165.485L254.736 165.872L254.955 166.39L255.188 166.777L255.42 167.294L255.679 167.681L255.937 168.068L256.208 168.586L256.48 168.973L257.06 169.877L257.668 170.652L258.326 171.556L258.998 172.331L259.709 173.106L260.445 174.011L261.22 174.785L262.007 175.431L262.834 176.205L263.674 176.981L264.539 177.627L265.43 178.401L266.334 179.047L267.265 179.693L268.208 180.339L269.176 180.985L270.158 181.502L271.152 182.148L272.159 182.663L273.206 183.309L274.291 183.826L275.402 184.344L276.538 184.859L277.7 185.505L278.902 186.022L280.129 186.41L282.687 187.443L285.347 188.347L288.111 189.122L290.979 189.897L293.937 190.672L296.985 191.189L300.098 191.705L303.275 192.222L306.504 192.481L309.771 192.739L313.078 192.868L316.385 192.996L319.691 192.868L322.985 192.739L326.265 192.481L329.494 192.222L332.672 191.705L335.785 191.189L338.833 190.672L341.791 189.897L344.658 189.122L347.422 188.347L350.083 187.443L352.628 186.41L353.867 186.022L355.056 185.505L356.231 184.859L357.368 184.344L358.478 183.826L359.55 183.309L360.609 182.663L361.617 182.148L362.612 181.502L363.593 180.985L364.549 180.339L365.505 179.693L366.422 179.047L367.339 178.401L368.23 177.627L369.096 176.981L369.935 176.205L370.762 175.431L371.55 174.785L372.325 174.011L373.061 173.106L373.771 172.331L374.443 171.556L375.089 170.652L375.709 169.877L376.29 168.973L376.561 168.586L376.832 168.068L377.091 167.681L377.336 167.294L377.581 166.777L377.814 166.39L378.034 165.872L378.253 165.485L378.447 164.969L378.641 164.581L378.821 164.065L379.002 163.548L379.157 163.161L379.313 162.643L379.454 162.256L379.584 161.74L379.712 161.223L379.816 160.836L379.919 160.319L380.009 159.803L380.087 159.414L380.165 158.898L380.216 158.381L380.268 157.994L380.306 157.477L380.332 156.961L380.346 156.444L380.358 156.057" stroke="#aa8455" stroke-width="5" stroke-miterlimit="10" stroke-linecap="round" stroke-linejoin="round"/>
<path d="M159.687 316.604L160.112 316.346L160.526 316.217L160.952 315.958L161.391 315.7L161.83 315.571L162.27 315.313L162.709 315.184L163.161 315.054L163.626 314.797L164.078 314.667L164.543 314.538L165.008 314.408L165.486 314.28L165.964 314.151H166.442L166.919 314.021L167.41 313.892H167.901L168.392 313.762H168.882H169.386L169.89 313.634H170.394H170.897H171.414H171.918H172.434H172.951L173.985 313.762L175.031 313.892L176.077 314.021L177.123 314.151L178.182 314.408L179.229 314.667L180.287 314.925L181.347 315.184L182.393 315.571L183.452 315.958L184.498 316.346L185.545 316.734L186.578 317.121L187.611 317.637L188.644 318.154L189.665 318.672L190.672 319.187L191.68 319.833L192.674 320.35L193.694 320.996L194.715 321.642L195.735 322.417L196.781 323.062L197.815 323.838L198.861 324.613L199.907 325.387L202.013 327.196L204.118 329.005L206.236 330.942L208.328 333.137L210.408 335.333L212.449 337.657L214.464 340.112L216.427 342.567L218.338 345.278L220.186 347.99L221.968 350.703L223.66 353.545L225.275 356.516L226.799 359.358L228.219 362.328L229.537 365.298L230.751 368.269L231.862 371.239L232.857 374.211L233.734 377.052L234.51 379.894L235.169 382.735L235.711 385.577L236.15 388.16L236.344 389.581L236.499 390.872L236.628 392.035L236.731 393.327L236.809 394.618L236.861 395.78L236.899 396.943L236.912 398.106L236.899 399.268L236.861 400.431L236.809 401.592L236.731 402.755L236.628 403.918L236.499 404.951L236.344 406.113L236.15 407.276L235.944 408.309L235.711 409.342L235.452 410.505L235.169 411.538L234.846 412.571L234.51 413.605L234.135 414.509L233.734 415.543L233.309 416.446L232.857 417.48L232.611 417.868L232.366 418.383L232.12 418.772L231.862 419.159L231.591 419.675L231.32 420.064L231.035 420.451L230.751 420.838L230.454 421.355L230.157 421.742L229.847 422.13L229.537 422.517L229.214 422.904L228.891 423.163L228.555 423.55L228.219 423.938L227.871 424.196L227.522 424.584L227.16 424.971L226.799 425.23L226.424 425.487L226.05 425.876L225.662 426.133L225.275 426.392L224.874 426.65L224.474 426.909L224.073 427.167L223.66 427.425" stroke="#aa8455" stroke-width="5" stroke-miterlimit="10" stroke-linecap="round" stroke-linejoin="round"/>
<path d="M248.782 131.129C248.795 131.129 248.665 131.129 248.665 131.129L248.537 130.999H248.407H248.278H248.007H247.748H247.49H247.219H246.689L246.005 131.129H245.32L244.649 131.258L243.964 131.388L243.163 131.516L242.362 131.645L241.561 131.775L240.774 132.033L239.986 132.291L239.198 132.421L237.648 132.936L235.827 133.582L234.031 134.358L232.249 135.004L230.493 135.908L228.762 136.683L227.044 137.587L225.339 138.491L223.66 139.395L221.322 140.816L219.01 142.236L216.75 143.787L214.515 145.337L210.459 148.307L206.507 151.408L204.208 153.345L201.948 155.411L199.726 157.349L197.53 159.415L193.255 163.548L189.122 167.94L184.834 172.719L180.688 177.497L176.697 182.535L172.848 187.702L169.153 192.868L165.589 198.163L162.166 203.588L158.898 209.142L155.85 214.567L152.944 220.121L150.012 226.063L147.261 232.004L144.768 237.946L142.443 243.758L140.286 249.828L138.323 255.899L136.657 261.582L135.171 267.395L133.88 273.207L133.311 276.177L132.794 279.148L132.019 284.314L131.71 286.897L131.438 289.611L131.232 292.194L131.076 294.777L130.974 297.36L130.935 300.072L130.96 302.138L131.025 304.206L131.128 306.013L131.271 307.951L131.464 309.759L131.696 311.697L131.981 313.506L132.33 315.313L132.678 316.992L132.872 317.768L133.079 318.542L133.298 319.318L133.544 320.092L133.802 320.867L134.073 321.643L134.331 322.288L134.59 322.934L134.874 323.58L135.171 324.226L135.417 324.613L135.545 324.872L135.688 325.13L135.83 325.259L135.972 325.517L136.049 325.646L136.127 325.776L136.204 325.905H136.295" stroke="#aa8455" stroke-width="5" stroke-miterlimit="10" stroke-linecap="round" stroke-linejoin="round"/>
</svg>
