<svg width="413" height="456" viewBox="0 0 413 456" fill="none" xmlns="http://www.w3.org/2000/svg">
<path d="M395.38 291.467L394.356 290.028L393.305 288.603L391.104 285.781L388.794 283.014L386.373 280.302L383.841 277.646L381.213 275.032L378.501 272.486L375.693 269.996L372.788 267.575L369.813 265.21L366.755 262.899L363.642 260.658L360.447 258.485L357.196 256.368L353.903 254.322L350.541 252.342L347.304 250.517L343.983 248.719L340.552 246.948L337.025 245.205L333.4 243.502L329.679 241.828L325.86 240.196L321.945 238.605L313.838 235.547L305.371 232.683L296.572 230.014L287.442 227.579L278.02 225.393L268.336 223.456L258.416 221.782L248.303 220.412L238.01 219.32L227.607 218.545L217.12 218.074L206.578 217.908L196.05 218.074L185.549 218.545L175.145 219.32L164.866 220.412L154.739 221.782L144.819 223.456L135.135 225.393L125.714 227.579L116.597 230.014L107.784 232.683L99.3311 235.547L91.2242 238.605L87.3088 240.196L83.4901 241.828L79.7687 243.502L76.1445 245.205L72.6162 246.948L69.1853 248.719L65.8509 250.517L62.6138 252.342L59.2659 254.322L55.9592 256.368L52.708 258.485L49.5262 260.658L46.3999 262.899L43.3419 265.21L40.3675 267.575L37.4763 269.996L34.6682 272.486L31.9424 275.032L29.314 277.646L26.7956 280.302L24.3746 283.014L22.0643 285.781L19.8648 288.603L18.813 290.028L17.7754 291.467" stroke="#aa8455" stroke-width="5" stroke-miterlimit="10" stroke-linecap="round" stroke-linejoin="round"/>
<path d="M16.1429 293.901L206.577 3L397.026 293.901L398.298 295.894L399.502 297.9L400.65 299.934L401.743 301.995L402.767 304.057L403.735 306.132L404.635 308.234L405.464 310.351L406.239 312.467L406.945 314.598L407.581 316.743L408.149 318.901L408.647 321.073L409.076 323.244L409.421 325.417L409.712 327.603L409.933 329.789L410.085 331.975L410.154 334.174L410.169 336.36L410.099 338.546L409.96 340.746L409.753 342.932L409.477 345.118L409.131 347.29L408.716 349.461L408.231 351.634L407.678 353.792L407.056 355.937L406.364 358.066L405.617 360.197L404.787 362.314L403.901 364.418L402.947 366.493L401.923 368.568L400.844 370.615L399.709 372.648L398.506 374.668L397.247 376.674L395.933 378.653L394.549 380.603L393.124 382.54L391.644 384.449L390.108 386.345L388.517 388.212L386.87 390.052L385.183 391.865L383.454 393.664L381.669 395.435L379.857 397.178L377.989 398.879L376.08 400.567L374.129 402.228L372.151 403.86L368.069 407.042L363.85 410.099L359.519 413.046L355.078 415.868L350.541 418.566L347.304 420.393L343.983 422.191L340.552 423.962L337.024 425.705L333.4 427.406L329.678 429.08L325.86 430.713L321.945 432.303L313.837 435.361L305.371 438.239L296.572 440.895L287.441 443.331L278.02 445.53L268.335 447.466L258.416 449.127L248.303 450.51L238.01 451.59L227.606 452.364L217.119 452.849L206.577 453L196.049 452.849L185.548 452.364L175.144 451.59L164.866 450.51L154.738 449.127L144.819 447.466L135.135 445.53L125.713 443.331L116.596 440.895L107.784 438.239L99.3307 435.361L91.2238 432.303L87.3085 430.713L83.4897 429.08L79.7683 427.406L76.1441 425.705L72.6159 423.962L69.1849 422.191L65.8505 420.393L62.6134 418.566L58.0759 415.868L53.6351 413.046L49.3043 410.099L45.0985 407.042L41.0177 403.86L39.0256 402.228L37.0888 400.567L35.1791 398.879L33.3113 397.178L31.4854 395.435L29.7007 393.664L27.9713 391.865L26.2839 390.052L24.6511 388.212L23.0603 386.345L21.5248 384.449L20.0306 382.54L18.6052 380.603L17.2359 378.653L15.9079 376.674L14.6487 374.668L13.4591 372.648L12.3107 370.615L11.2312 368.568L10.2213 366.493L9.26681 364.418L8.36769 362.314L7.55166 360.197L6.79035 358.066L6.09862 355.937L5.47646 353.792L4.92321 351.634L4.43886 349.461L4.02342 347.29L3.67755 345.118L3.40126 342.932L3.19387 340.746L3.05539 338.546L3 336.36V334.174L3.08309 331.975L3.2209 329.789L3.44247 327.603L3.73294 325.417L4.09299 323.244L4.52195 321.073L5.01981 318.901L5.58725 316.743L6.22359 314.598L6.91532 312.467L7.69015 310.351L8.51969 308.234L9.41948 306.132L10.3875 304.057L11.4116 301.995L12.5046 299.934L13.6523 297.9L14.8703 295.894L16.1429 293.901Z" stroke="#aa8455" stroke-width="5" stroke-miterlimit="10" stroke-linecap="round" stroke-linejoin="round"/>
</svg>
