<svg width="456" height="456" viewBox="0 0 456 456" fill="none" xmlns="http://www.w3.org/2000/svg">
<path d="M112.617 34.8945L111.245 35.7771L109.907 36.7074L108.582 37.6523L107.274 38.6456L105.982 39.6536L104.722 40.6939L103.461 41.7658L102.232 42.853L101.034 43.9872L99.852 45.1376L98.6863 46.3194L97.536 47.5175L96.4172 48.7463L95.3138 50.0075L94.2265 51.2994L93.1708 52.6075L92.1467 53.9471L91.1218 55.3021L90.1453 56.6887L89.1681 58.0914L88.2224 59.5257L87.3083 60.9907L86.4104 62.4565L85.5278 63.9531L83.8419 67.0263L82.2499 70.1627L80.7533 73.3928L79.3506 76.6861L78.0263 80.0433L76.8137 83.4781L75.6787 86.9769L74.6384 90.5225L73.6928 94.1313L72.8263 97.787L72.0546 101.474L71.3767 105.225L70.778 108.991L70.2733 112.804L69.8324 116.65L69.4854 120.511L69.2337 124.403L69.0445 128.295L68.9183 132.219L68.8867 136.143L68.9344 140.24L69.0445 144.432L69.2491 148.687L69.5331 153.02L69.8955 157.433L70.3679 161.924L70.9042 166.478L71.5498 171.111L73.0941 180.551L75.0324 190.242L77.3492 200.139L80.0593 210.224L83.164 220.451L86.6627 230.789L90.5547 241.205L94.8252 251.653L99.4742 262.085L104.47 272.486L109.812 282.792L115.484 292.956L121.457 302.947L127.713 312.733L134.206 322.267L140.935 331.501L147.837 340.436L154.912 349.009L162.114 357.204L169.426 365.004L176.801 372.394L184.208 379.344L191.63 385.868L199.036 391.935L202.724 394.803L206.396 397.546L210.052 400.193L213.692 402.714L217.301 405.141L220.893 407.442L224.455 409.632L227.985 411.712L231.404 413.65L234.855 415.51L238.338 417.306L241.836 419.008L245.35 420.647L248.896 422.191L252.442 423.657L256.019 425.028L259.596 426.305L263.189 427.487L266.782 428.574L270.375 429.55L273.968 430.418L277.561 431.189L281.138 431.852L284.715 432.387L288.277 432.828L291.807 433.128L295.337 433.333L298.819 433.396H300.568L302.286 433.349L304.004 433.285L305.721 433.175L307.423 433.034L309.125 432.876L310.811 432.687L312.482 432.451L314.136 432.198L315.791 431.899L317.43 431.583L319.069 431.221L320.677 430.827L322.283 430.418L323.875 429.961L325.451 429.472L327.027 428.968L328.571 428.416L330.1 427.833L331.628 427.234L333.126 426.588L334.607 425.911L336.088 425.217L337.538 424.477" stroke="#aa8455" stroke-width="5" stroke-miterlimit="10" stroke-linecap="round" stroke-linejoin="round"/>
<path d="M118.431 424.477L119.896 425.217L121.362 425.911L122.859 426.588L124.356 427.234L125.869 427.833L127.413 428.416L128.958 428.968L130.517 429.488L132.093 429.961L133.685 430.418L135.293 430.827L136.915 431.221L138.539 431.583L140.178 431.899L141.832 432.198L143.503 432.451L145.173 432.687L146.859 432.876L148.545 433.049L150.263 433.175L151.965 433.285L153.683 433.349L155.416 433.396H157.15L160.648 433.333L164.162 433.128L167.708 432.828L171.269 432.387L174.83 431.852L178.424 431.189L182.016 430.418L185.609 429.55L189.202 428.574L192.795 427.487L196.388 426.305L199.966 425.028L203.527 423.657L207.088 422.191L210.634 420.647L214.148 419.008L217.646 417.306L221.113 415.51L224.564 413.65L227.984 411.712L231.514 409.632L235.075 407.442L238.669 405.141L242.293 402.714L245.917 400.193L249.573 397.546L253.245 394.803L256.948 391.935L264.339 385.868L271.761 379.344L279.184 372.394L286.558 365.004L293.855 357.204L301.056 349.009L308.131 340.436L315.05 331.501L321.779 322.267L328.271 312.733L334.512 302.947L340.484 292.956L346.157 282.792L351.499 272.486L356.51 262.085L361.159 251.653L365.43 241.205L369.322 230.789L372.821 220.451L375.925 210.224L378.635 200.139L380.952 190.242L382.874 180.551L384.435 171.111L385.065 166.478L385.617 161.924L386.074 157.433L386.451 153.02L386.735 148.687L386.924 144.432L387.05 140.24L387.082 136.143L387.05 132.219L386.94 128.295L386.751 124.403L386.483 120.511L386.136 116.65L385.71 112.804L385.191 108.991L384.608 105.225L383.915 101.474L383.142 97.787L382.291 94.1313L381.346 90.5225L380.306 86.9769L379.171 83.4781L377.942 80.0433L376.634 76.6861L375.231 73.3928L373.735 70.1627L372.127 67.0263L370.457 63.9693L369.574 62.4565L368.676 60.9907L367.746 59.5257L366.8 58.0914L365.839 56.6887L364.847 55.3021L363.838 53.9471L362.798 52.6075L361.742 51.2994L360.671 50.0075L359.567 48.7463L358.449 47.5175L357.298 46.3194L356.133 45.1376L354.951 43.9872L353.737 42.853L352.508 41.7658L351.263 40.6939L350.002 39.6536L348.71 38.6456L347.402 37.6523L346.078 36.7074L344.723 35.7933L343.368 34.8945" stroke="#aa8455" stroke-width="5" stroke-miterlimit="10" stroke-linecap="round" stroke-linejoin="round"/>
<path d="M452.922 224.644L452.827 223.021L452.701 221.382L452.543 219.759L452.339 218.136L452.118 216.529L451.85 214.905L451.551 213.282L451.204 211.675L450.841 210.067L450.432 208.46L449.99 206.869L449.518 205.277L449.014 203.686L448.478 202.093L447.895 200.518L447.296 198.958L446.65 197.382L445.988 195.838L445.279 194.277L444.538 192.733L443.766 191.204L442.978 189.676L442.143 188.163L441.292 186.65L439.479 183.657L437.557 180.709L435.508 177.809L433.365 174.942L431.096 172.121L428.748 169.348L426.289 166.621L423.721 163.942L421.074 161.311L418.348 158.742L415.527 156.236L412.627 153.762L409.665 151.367L406.607 149.019L403.503 146.718L400.336 144.496L397.105 142.321L393.811 140.194L390.47 138.145L387.099 136.144L383.521 134.127L379.833 132.141L376.051 130.188L372.143 128.265L368.141 126.39L364.028 124.531L359.804 122.734L355.487 120.969L346.52 117.596L337.175 114.413L327.436 111.482L317.351 108.787L306.95 106.361L296.235 104.218L285.282 102.389L274.094 100.861L262.733 99.6632L251.228 98.7968L239.63 98.2766L227.985 98.1035L216.355 98.2766L204.757 98.7968L193.253 99.6632L181.891 100.861L170.702 102.389L159.734 104.218L149.034 106.361L138.618 108.787L128.533 111.482L118.81 114.413L109.45 117.596L100.498 120.969L96.1649 122.734L91.9575 124.531L87.8447 126.39L83.8258 128.265L79.9339 130.188L76.1359 132.141L72.464 134.127L68.8868 136.144L65.4989 138.145L62.174 140.194L58.88 142.321L55.6498 144.496L52.4819 146.718L49.3618 149.019L46.3209 151.367L43.3577 153.762L40.4584 156.236L37.6375 158.742L34.896 161.311L32.2483 163.942L29.6952 166.621L27.2368 169.348L24.873 172.121L22.62 174.942L20.4771 177.809L18.428 180.709L16.5059 183.657L14.6931 186.65L13.8267 188.163L13.0072 189.676L12.2039 191.204L11.4467 192.733L10.7065 194.277L9.99707 195.838L9.33533 197.382L8.68899 198.958L8.07496 200.518L7.5071 202.093L6.97156 203.686L6.46756 205.277L5.99434 206.869L5.55344 208.46L5.14332 210.067L4.78091 211.675L4.43465 213.282L4.13533 214.905L3.86756 216.529L3.63057 218.136L3.44205 219.759L3.28431 221.382L3.15812 223.021L3.06348 224.644" stroke="#aa8455" stroke-width="5" stroke-miterlimit="10" stroke-linecap="round" stroke-linejoin="round"/>
<path d="M343.383 421.152L339.16 423.626L332.857 427.077L326.396 430.339L319.825 433.412L313.143 436.264L306.367 438.912L299.48 441.354L292.515 443.56L285.487 445.53L278.396 447.295L271.256 448.808L264.071 450.1L256.854 451.14L249.636 451.96L242.403 452.543L235.186 452.889L227.984 453L220.703 452.889L213.392 452.527L206.063 451.928L198.752 451.093L191.44 450.021L184.175 448.698L176.942 447.137L169.756 445.341L162.634 443.308L155.589 441.039L148.624 438.55L141.769 435.839L135.009 432.892L128.374 429.756L121.866 426.399L115.483 422.853L110.631 419.986L105.84 416.96L101.128 413.824L96.4794 410.562L91.9088 407.19L87.4183 403.692L83.0054 400.067L78.7034 396.348L74.4798 392.503L70.3671 388.563L66.349 384.529L62.4409 380.385L58.6428 376.161L54.971 371.844L51.3938 367.431L47.9589 362.956L45.0434 358.984L42.2064 354.935L39.4649 350.821L36.8172 346.662L34.2487 342.438L31.7903 338.151L29.4265 333.818L27.1574 329.437L24.3843 323.764L21.7681 317.981L19.3097 312.118L17.009 306.178L14.8814 300.174L12.9116 294.091L11.1149 287.961L9.50754 281.783L8.07404 275.543L6.8129 269.287L5.72566 262.984L4.8277 256.68L4.10287 250.345L3.56656 244.01L3.18875 237.691L3.01562 231.372V224.643L3.2203 217.899L3.61426 211.138L4.22906 204.378L5.04853 197.633L6.07268 190.904L7.28612 184.207L8.71962 177.541L10.3586 170.907L12.1868 164.352L14.2035 157.843L16.4257 151.413L18.8372 145.063L21.4211 138.791L24.195 132.629L27.1574 126.562L29.4265 122.198L31.7903 117.864L34.2487 113.577L36.8172 109.354L39.4649 105.178L42.2064 101.081L45.0434 97.0309L47.9589 93.0443L51.3938 88.5684L54.9556 84.1717L58.6428 79.8543L62.4409 75.6307L66.349 71.4864L70.3517 67.4521L74.4644 63.5125L78.688 59.6829L82.99 55.9487L87.4021 52.34L91.8934 48.8259L96.4633 45.4533L101.112 42.1916L105.84 39.0553L110.631 36.0298L115.483 33.1458L118.415 31.4915L124.655 28.1344L131.037 24.9673L137.514 21.9887L144.117 19.2156L150.815 16.6625L157.591 14.2987L164.446 12.1558L171.379 10.2329L178.361 8.54702L185.404 7.06582L192.48 5.82083L199.571 4.81207L206.678 4.00876L213.801 3.45706L220.909 3.11003L227.984 3L235.075 3.11003L242.183 3.45706L249.305 4.00876L256.412 4.81207L263.503 5.82083L270.579 7.06582L277.608 8.54702L284.604 10.2329L291.522 12.1558L298.393 14.2987L305.169 16.6625L311.866 19.2156L318.469 21.9887L324.946 24.9673L331.313 28.1344L337.568 31.4915L341.35 33.6498L346.141 36.5184L350.868 39.5277L355.533 42.6479L360.119 45.8788L364.626 49.2514L369.07 52.7178L373.404 56.3111L377.658 60.0138L381.818 63.8118L385.884 67.7199L389.855 71.7226L393.716 75.82L397.451 79.9958L401.091 84.2663L404.621 88.6161L408.025 93.0443L410.94 97.0309L413.776 101.081L416.519 105.178L419.166 109.354L421.719 113.577L424.193 117.864L426.557 122.198L428.826 126.562L431.773 132.629L434.546 138.791L437.146 145.063L439.558 151.413L441.779 157.843L443.797 164.352L445.624 170.907L447.263 177.541L448.682 184.207L449.911 190.904L450.935 197.633L451.754 204.378L452.353 211.138L452.763 217.899L452.968 224.643V231.372L452.779 237.691L452.416 244.01L451.881 250.345L451.156 256.68L450.258 262.984L449.17 269.287L447.909 275.543L446.475 281.783L444.852 287.961L443.072 294.091L441.102 300.174L438.975 306.178L436.674 312.118L434.215 317.981L431.599 323.764L428.826 329.437L426.557 333.818L424.193 338.151L421.719 342.438L419.166 346.662L416.519 350.821L413.776 354.935L410.94 358.984L408.025 362.956L404.715 367.273L401.28 371.513L397.75 375.689L394.11 379.77L390.359 383.757L386.514 387.665L382.575 391.494L378.541 395.214L374.428 398.838L370.22 402.352L365.934 405.771L361.553 409.065L357.109 412.264L352.602 415.353L348.032 418.315L343.383 421.152Z" stroke="#aa8455" stroke-width="5" stroke-miterlimit="10" stroke-linecap="round" stroke-linejoin="round"/>
<path d="M115.484 33.1468L116.95 32.3274L118.431 31.5394L119.944 30.7677L121.457 30.0421L123.001 29.365L124.546 28.7032L126.121 28.0723L127.713 27.4898L129.305 26.9219L130.928 26.4025L132.567 25.9139L134.206 25.4569L135.877 25.0314L137.546 24.6528L139.233 24.2904L140.935 23.9757L142.636 23.6917L144.37 23.4394L146.103 23.2193L147.837 23.03L149.602 22.8884L151.367 22.7622L153.132 22.683L154.912 22.6199L156.709 22.6045L158.506 22.6199L160.302 22.6676L162.13 22.7461L165.77 22.9985L169.426 23.3763L173.114 23.881L176.801 24.5112L180.504 25.2522L184.208 26.1024L187.927 27.0797L191.63 28.1669L195.349 29.3488L199.036 30.6415L202.724 32.0434L206.396 33.5254L210.052 35.1167L213.692 36.7871L217.301 38.5361L220.893 40.3797L224.455 42.3026L227.985 44.2878L231.515 46.3838L235.076 48.5745L238.669 50.8752L242.293 53.2859L245.918 55.8235L249.574 58.4551L253.246 61.2128L256.949 64.0806L264.34 70.1478L271.762 76.6559L279.184 83.621L286.559 90.9963L293.856 98.8124L301.057 107.007L308.132 115.58L315.05 124.499L321.779 133.749L328.272 143.283L334.512 153.053L340.485 163.06L346.158 173.224L351.5 183.531L356.511 193.915L361.16 204.363L365.431 214.811L369.323 225.227L372.821 235.565L375.925 245.792L378.636 255.862L380.953 265.758L382.875 275.45L384.435 284.905L385.066 289.522L385.617 294.076L386.074 298.568L386.452 302.98L386.736 307.313L386.925 311.584L387.051 315.76L387.099 319.857L387.051 323.97L386.925 328.067L386.72 332.164L386.437 336.23L386.043 340.265L385.57 344.283L385.018 348.254L384.356 352.193L383.6 356.102L382.765 359.947L381.803 363.745L380.764 367.495L379.629 371.167L378.384 374.791L377.029 378.337L375.594 381.804L374.035 385.192L373.231 386.862L372.396 388.501L371.529 390.124L370.647 391.716L369.733 393.292L368.787 394.836L367.826 396.365L366.833 397.862L365.825 399.343L364.784 400.792L363.729 402.211L362.641 403.613L361.523 404.969L360.388 406.308L359.237 407.632L358.055 408.909L356.842 410.154L355.613 411.383L354.368 412.58L353.092 413.746L351.8 414.865L350.475 415.969L349.136 417.04L347.765 418.08L346.378 419.089L344.976 420.05L343.557 420.995L342.108 421.893L340.642 422.776L339.161 423.611" stroke="#aa8455" stroke-width="5" stroke-miterlimit="10" stroke-linecap="round" stroke-linejoin="round"/>
<path d="M341.351 33.6508L339.886 32.7998L338.389 31.9811L336.891 31.1932L335.363 30.4522L333.819 29.7274L332.258 29.0495L330.683 28.4039L329.091 27.7891L327.484 27.2059L325.86 26.6542L324.222 26.1502L322.567 25.6777L320.897 25.2207L319.211 24.8267L317.509 24.4481L315.807 24.1172L314.089 23.8018L312.356 23.534L310.607 23.2978L308.842 23.1085L307.076 22.9354L305.312 22.8092L303.515 22.6991L301.719 22.636L299.922 22.6045L298.11 22.6199L296.282 22.6514L294.454 22.7145L290.782 22.9507L287.095 23.3139L283.392 23.8018L279.657 24.4166L275.922 25.1576L272.171 26.0086L268.436 26.9696L264.686 28.0569L260.951 29.2542L257.217 30.5468L253.497 31.9496L249.779 33.4462L246.091 35.0382L242.42 36.7241L238.763 38.4892L235.155 40.3482L231.546 42.2865L227.985 44.2878L224.455 46.3684L220.893 48.5745L217.301 50.8752L213.692 53.2859L210.052 55.8074L206.396 58.4551L202.724 61.2128L199.036 64.0806L191.63 70.1478L184.208 76.6559L176.801 83.621L169.426 90.9963L162.13 98.8124L154.912 107.007L147.837 115.58L140.935 124.499L134.206 133.749L127.713 143.267L121.457 153.053L115.484 163.044L109.812 173.224L104.47 183.531L99.4742 193.915L94.8252 204.363L90.5547 214.811L86.6627 225.227L83.164 235.565L80.0593 245.792L77.3492 255.862L75.0324 265.758L73.0941 275.45L71.5498 284.905L70.9042 289.522L70.3679 294.076L69.9109 298.568L69.5331 302.98L69.2491 307.313L69.0445 311.584L68.9344 315.76L68.8867 319.857L68.9344 323.923L69.0445 327.957L69.2491 331.991L69.5331 335.994L69.9109 339.981L70.3679 343.936L70.9042 347.86L71.5498 351.753L72.2746 355.613L73.0941 359.411L74.0244 363.161L75.0324 366.865L76.1358 370.505L77.3492 374.082L78.6573 377.596L80.0593 381.032L81.5566 384.404L83.164 387.682L83.9989 389.289L84.8661 390.881L85.7486 392.441L86.6627 393.97L87.6076 395.498L88.5533 396.995L89.5459 398.46L90.5547 399.895L91.5788 401.313L92.6345 402.715L93.7225 404.07L94.8252 405.41L95.944 406.733L97.0943 408.01L98.2762 409.271L99.4742 410.5L100.688 411.698L101.933 412.864L103.193 413.999L104.47 415.117L105.778 416.189L107.101 417.245L108.456 418.253L109.812 419.246L111.214 420.191L112.617 421.122L114.051 422.004L115.484 422.854" stroke="#aa8455" stroke-width="5" stroke-miterlimit="10" stroke-linecap="round" stroke-linejoin="round"/>
<path d="M3 227.147V228.834L3.03155 230.536L3.1108 232.237L3.22083 233.924L3.37857 235.61L3.56709 237.296L3.78793 238.998L4.0557 240.668L4.37117 242.355L4.70204 244.041L5.08062 245.711L5.50613 247.382L5.96241 249.036L6.45102 250.691L6.97117 252.346L7.53827 254L8.13767 255.639L8.76786 257.278L9.44575 258.901L10.1544 260.524L10.8954 262.132L11.6672 263.739L12.4713 265.33L13.3223 266.906L14.1887 268.482L15.1028 270.058L16.0485 271.602L17.0095 273.146L19.0578 276.204L21.2169 279.214L23.5022 282.192L25.8814 285.108L28.3867 287.96L31.0029 290.781L33.7137 293.522L36.5184 296.233L39.4177 298.865L42.3963 301.449L45.4695 303.97L48.6212 306.429L51.836 308.824L55.1293 311.156L58.4856 313.425L61.9051 315.632L65.3723 317.775L68.8864 319.855L72.4636 321.872L76.1355 323.858L79.9335 325.812L83.8254 327.734L87.8443 329.625L91.9571 331.469L96.1645 333.281L100.498 335.046L109.449 338.419L118.81 341.586L128.533 344.533L138.618 347.228L149.034 349.638L159.734 351.782L170.702 353.626L181.891 355.154L193.252 356.352L204.757 357.218L216.355 357.738L227.984 357.912L239.63 357.738L251.228 357.218L262.732 356.352L274.094 355.154L285.282 353.626L296.234 351.782L306.95 349.638L317.351 347.228L327.436 344.533L337.175 341.586L346.52 338.419L355.487 335.046L359.804 333.281L364.028 331.469L368.14 329.625L372.143 327.734L376.051 325.812L379.833 323.858L383.521 321.872L387.082 319.855L390.612 317.775L394.079 315.632L397.499 313.425L400.839 311.156L404.133 308.824L407.363 306.429L410.5 303.97L413.572 301.449L416.566 298.865L419.466 296.233L422.271 293.522L424.982 290.781L427.582 287.96L430.087 285.108L432.482 282.192L434.768 279.214L436.926 276.204L438.959 273.146L439.936 271.602L440.882 270.058L441.78 268.482L442.662 266.906L443.498 265.33L444.317 263.739L445.089 262.132L445.83 260.524L446.539 258.901L447.201 257.278L447.847 255.639L448.446 254L448.997 252.346L449.533 250.691L450.021 249.036L450.478 247.382L450.889 245.711L451.266 244.041L451.613 242.355L451.913 240.668L452.181 238.998L452.417 237.296L452.606 235.61L452.764 233.924L452.874 232.237L452.953 230.536L452.985 228.834V227.147" stroke="#aa8455" stroke-width="5" stroke-miterlimit="10" stroke-linecap="round" stroke-linejoin="round"/>
</svg>
