<svg width="243" height="417" viewBox="0 0 243 417" fill="none" xmlns="http://www.w3.org/2000/svg">
<path d="M181.02 208.56V140.04V71.52V3" stroke="#aa8455" stroke-width="5" stroke-miterlimit="10" stroke-linecap="round" stroke-linejoin="round"/>
<path d="M240.37 379.87L181.02 345.609L240.37 311.35L181.02 277.08L240.37 242.819L181.02 208.56L3 311.35" stroke="#aa8455" stroke-width="5" stroke-miterlimit="10" stroke-linecap="round" stroke-linejoin="round"/>
<path d="M240.37 379.87L181.02 414.13L3 311.35V105.78L181.02 3L240.37 37.2603V105.78V174.3V379.87Z" stroke="#aa8455" stroke-width="5" stroke-miterlimit="10" stroke-linecap="round" stroke-linejoin="round"/>
<path d="M3 105.78L181.02 208.56" stroke="#aa8455" stroke-width="5" stroke-miterlimit="10" stroke-linecap="round" stroke-linejoin="round"/>
<path d="M181.02 140.04L240.37 174.3" stroke="#aa8455" stroke-width="5" stroke-miterlimit="10" stroke-linecap="round" stroke-linejoin="round"/>
<path d="M181.02 208.56L240.37 174.3" stroke="#aa8455" stroke-width="5" stroke-miterlimit="10" stroke-linecap="round" stroke-linejoin="round"/>
<path d="M181.02 208.56V414.129" stroke="#aa8455" stroke-width="5" stroke-miterlimit="10" stroke-linecap="round" stroke-linejoin="round"/>
<path d="M181.02 71.5205L240.37 105.781" stroke="#aa8455" stroke-width="5" stroke-miterlimit="10" stroke-linecap="round" stroke-linejoin="round"/>
<path d="M181.02 140.04L240.37 105.78" stroke="#aa8455" stroke-width="5" stroke-miterlimit="10" stroke-linecap="round" stroke-linejoin="round"/>
<path d="M181.02 71.5205L240.37 37.2607" stroke="#aa8455" stroke-width="5" stroke-miterlimit="10" stroke-linecap="round" stroke-linejoin="round"/>
</svg>
